<svg width="1000" height="1000" viewBox="0 0 1000 1000" fill="none" xmlns="http://www.w3.org/2000/svg">
<rect width="1000" height="1000" rx="150" fill="#E64553"/>
<path d="M305.556 791.667H378.472V694.444H475.694V621.528H378.472V524.306H305.556V621.528H208.333V694.444H305.556V791.667ZM548.611 755.208H791.667V682.292H548.611V755.208ZM548.611 633.681H791.667V560.764H548.611V633.681ZM602.083 448.958L670.139 380.903L738.194 448.958L789.236 397.917L721.181 327.431L789.236 259.375L738.194 208.333L670.139 276.389L602.083 208.333L551.042 259.375L619.097 327.431L551.042 397.917L602.083 448.958ZM220.486 363.889H463.542V290.972H220.486V363.889ZM159.722 937.5C132.986 937.5 110.098 927.98 91.059 908.941C72.0197 889.902 62.5 867.014 62.5 840.278V159.722C62.5 132.986 72.0197 110.098 91.059 91.059C110.098 72.0197 132.986 62.5 159.722 62.5H840.278C867.014 62.5 889.902 72.0197 908.941 91.059C927.98 110.098 937.5 132.986 937.5 159.722V840.278C937.5 867.014 927.98 889.902 908.941 908.941C889.902 927.98 867.014 937.5 840.278 937.5H159.722ZM159.722 840.278H840.278V159.722H159.722V840.278Z" fill="#E3E3E3"/>
</svg>
